<svg width="580" height="522" viewBox="0 0 580 522" fill="none" xmlns="http://www.w3.org/2000/svg">
<path fill-rule="evenodd" clip-rule="evenodd" d="M247.928 145.105C265.786 159.775 287.679 170.764 310.754 172.419C351.022 175.307 390.602 147.309 429.489 158.126C473.435 170.35 515.505 197.55 539.729 236.109C565.092 276.483 600.018 341.774 565.647 374.862C517.731 420.99 430.909 372.88 369.928 399.572C343.233 411.257 352.747 456.431 332.191 477.049C309.453 499.856 280.146 523.319 247.928 521.942C215.491 520.556 196.664 483.315 167.072 469.994C136.561 456.259 76.9657 475.627 71.7738 442.645C64.5698 396.88 160.098 369.705 144.421 326.098C125.734 274.121 19.4137 298.521 1.21185 246.372C-11.4254 210.167 78.6059 214.957 93.2566 179.514C116.272 123.835 43.5625 14.4525 102.498 1.34149C169.96 -13.6664 194.575 101.277 247.928 145.105Z" fill="url(#paint0_linear_228_5344)"/>
<defs>
<linearGradient id="paint0_linear_228_5344" x1="0" y1="261" x2="580" y2="261" gradientUnits="userSpaceOnUse">
<stop stop-color="#4AC29A"/>
<stop offset="1" stop-color="#BDFFF3"/>
</linearGradient>
</defs>
</svg>
